HIERARCHY
ROOT Hips
{
	OFFSET 0.000000 0.000000 0.000000
	CHANNELS 6 Xposition Yposition Zposition Xrotation Yrotation Zrotation
	JOINT LeftUpLeg_virtual
	{
		OFFSET 0.000000 0.000000 0.000000
		CHANNELS 3 Xrotation Yrotation Zrotation
		JOINT LeftUpLeg
		{
			OFFSET 11.394100 -6.187798 -0.413800
			CHANNELS 3 Xrotation Yrotation Zrotation
			JOINT LeftLeg
			{
				OFFSET 0.430247 -32.302673 3.732800
				CHANNELS 3 Xrotation Yrotation Zrotation
				JOINT LeftFoot
				{
					OFFSET -0.430247 -48.264931 -6.423300
					CHANNELS 3 Xrotation Yrotation Zrotation
					JOINT LeftToeBase
					{
						OFFSET 4.230900 -16.068199 23.438400
						CHANNELS 3 Xrotation Yrotation Zrotation
						JOINT LeftToe_End
						{
							OFFSET 4.510700 0.695400 19.974600
							CHANNELS 3 Xrotation Yrotation Zrotation
							End Site
							{
								OFFSET 0 0 0
							}
						}
					}
				}
			}
		}
	}
	JOINT RightUpLeg_virtual
	{
		OFFSET 0.000000 0.000000 0.000000
		CHANNELS 3 Xrotation Yrotation Zrotation
		JOINT RightUpLeg
		{
			OFFSET -11.333700 -6.187798 -0.413800
			CHANNELS 3 Xrotation Yrotation Zrotation
			JOINT RightLeg
			{
				OFFSET -0.430392 -32.302628 3.733000
				CHANNELS 3 Xrotation Yrotation Zrotation
				JOINT RightFoot
				{
					OFFSET 0.430392 -48.264973 -6.423500
					CHANNELS 3 Xrotation Yrotation Zrotation
					JOINT RightToeBase
					{
						OFFSET -4.230900 -16.068199 23.438400
						CHANNELS 3 Xrotation Yrotation Zrotation
						JOINT RightToe_End
						{
							OFFSET -4.510700 0.695400 19.974600
							CHANNELS 3 Xrotation Yrotation Zrotation
							End Site
							{
								OFFSET 0 0 0
							}
						}
					}
				}
			}
		}
	}
	JOINT Spine_virtual
	{
		OFFSET 0.000000 0.000000 0.000000
		CHANNELS 3 Xrotation Yrotation Zrotation
		JOINT Spine
		{
			OFFSET -0.002400 12.777504 0.315300
			CHANNELS 3 Xrotation Yrotation Zrotation
			JOINT Spine1
			{
				OFFSET -0.002067 5.816869 0.032633
				CHANNELS 3 Xrotation Yrotation Zrotation
				JOINT Spine1_split
				{
					OFFSET -0.002067 5.816869 0.032633
					CHANNELS 3 Xrotation Yrotation Zrotation
					JOINT Spine2
					{
						OFFSET -0.002067 5.816869 0.032633
						CHANNELS 3 Xrotation Yrotation Zrotation
						JOINT Neck_virtual
						{
							OFFSET 0.000000 0.000000 0.000000
							CHANNELS 3 Xrotation Yrotation Zrotation
							JOINT Neck
							{
								OFFSET -0.003700 21.199493 -0.826900
								CHANNELS 3 Xrotation Yrotation Zrotation
								JOINT Head
								{
									OFFSET 0.000000 20.442200 4.834800
									CHANNELS 3 Xrotation Yrotation Zrotation
									JOINT HeadTop_End
									{
										OFFSET 0.000000 34.668396 4.968400
										CHANNELS 3 Xrotation Yrotation Zrotation
										End Site
										{
											OFFSET 0 0 0
										}
									}
								}
							}
						}
						JOINT LeftShoulder_virtual
						{
							OFFSET 0.000000 0.000000 0.000000
							CHANNELS 3 Xrotation Yrotation Zrotation
							JOINT LeftShoulder
							{
								OFFSET 3.288150 8.794197 -1.372250
								CHANNELS 3 Xrotation Yrotation Zrotation
								JOINT LeftShoulder_split
								{
									OFFSET 3.288150 8.794197 -1.372250
									CHANNELS 3 Xrotation Yrotation Zrotation
									JOINT LeftArm
									{
										OFFSET 11.953299 -2.279007 -0.146200
										CHANNELS 3 Xrotation Yrotation Zrotation
										JOINT LeftForeArm
										{
											OFFSET 18.448900 0.000000 0.000000
											CHANNELS 3 Xrotation Yrotation Zrotation
											JOINT LeftHand
											{
												OFFSET 29.527798 0.000000 0.000000
												CHANNELS 3 Xrotation Yrotation Zrotation
												End Site
												{
													OFFSET 0 0 0
												}
											}
										}
									}
								}
							}
						}
						JOINT RightShoulder_virtual
						{
							OFFSET 0.000000 0.000000 0.000000
							CHANNELS 3 Xrotation Yrotation Zrotation
							JOINT RightShoulder
							{
								OFFSET -3.249400 8.794197 -1.372250
								CHANNELS 3 Xrotation Yrotation Zrotation
								JOINT RightShoulder_split
								{
									OFFSET -3.249400 8.794197 -1.372250
									CHANNELS 3 Xrotation Yrotation Zrotation
									JOINT RightArm
									{
										OFFSET -11.953299 -2.279007 -0.146200
										CHANNELS 3 Xrotation Yrotation Zrotation
										JOINT RightForeArm
										{
											OFFSET -18.448900 0.000000 0.000000
											CHANNELS 3 Xrotation Yrotation Zrotation
											JOINT RightHand
											{
												OFFSET -29.527802 0.000000 0.000000
												CHANNELS 3 Xrotation Yrotation Zrotation
												End Site
												{
													OFFSET 0 0 0
												}
											}
										}
									}
								}
							}
						}
					}
				}
			}
		}
	}
}
MOTION
Frames: 7
Frame Time: 0.03333333
-1.074605 103.125854 -1.540154 0.000000 0.000000 0.000000 -5.683823 -3.114682 0.682674 -5.309217 5.611160 7.796896 14.063873 11.942809 1.568218 -3.678545 3.956645 -8.340247 2.593857 0.647117 -2.278600 0.000000 0.000000 0.000000 -5.497273 -2.394099 0.617711 -4.108306 -8.856063 -7.222818 12.064411 -9.644716 -1.679937 -0.609863 -5.285725 4.899434 -4.098908 -0.797759 -2.428307 0.000000 0.000000 0.000000 -5.099289 -2.973744 0.128811 3.512085 1.545326 -2.017509 1.320561 0.211127 0.153519 0.869746 -1.232599 0.129874 0.000000 0.000000 0.000000 0.743637 0.710397 0.005075 3.079205 0.306014 -0.132241 18.306992 -11.447346 0.191750 0.000000 0.000000 0.000000 0.841338 0.521884 -0.006443 2.800722 -3.967297 -12.493961 -1.319722 -0.975666 -1.654791 -3.874135 -7.849786 -58.848377 -1.271931 -13.017299 0.344061 0.000000 0.000000 0.000000 0.832008 0.363403 0.049998 2.387115 0.739414 15.467474 -0.351653 1.943524 -2.158049 -1.575621 8.477145 64.863233 0.166567 15.789381 1.070896 0.000000 0.000000 0.000000 
-1.051584 103.113335 -1.801586 0.000000 0.000000 0.000000 -5.809739 -3.000748 0.709564 -5.410715 5.494773 7.762375 14.190114 11.832804 1.573619 -3.629616 3.793955 -8.431706 2.505265 0.642514 -2.241486 0.000000 0.000000 0.000000 -5.624904 -2.162027 0.640938 -4.070136 -8.919663 -7.247398 11.976371 -9.593143 -1.726322 -0.608062 -5.391372 4.847811 -3.714959 -0.834419 -2.381384 0.000000 0.000000 0.000000 -5.160044 -2.680974 0.235428 3.574239 1.628145 -1.966536 1.337448 0.248693 0.130574 0.949433 -0.961964 0.214235 0.000000 0.000000 0.000000 0.696045 0.710172 0.007097 3.103843 0.210209 -0.145344 18.294972 -11.522698 0.269735 0.000000 0.000000 0.000000 0.833824 0.545860 -0.042798 2.777276 -3.839510 -12.568946 -1.463310 -0.550115 -1.910327 -3.087672 -7.200731 -58.695367 -1.262813 -12.489824 0.368577 0.000000 0.000000 0.000000 0.865161 0.418654 0.026225 2.362533 0.925915 15.460751 -0.424754 2.319455 -2.339789 -2.280788 8.808911 64.817232 0.239316 16.399460 0.950642 0.000000 0.000000 0.000000 
-1.103058 102.985367 -2.123196 0.000000 0.000000 0.000000 -6.020253 -2.436644 0.831255 -5.688949 5.351803 7.659817 14.567982 11.666233 1.544047 -3.767940 3.500349 -8.401407 2.394501 0.632431 -2.167464 0.000000 0.000000 0.000000 -5.849527 -1.486202 0.754348 -4.098175 -8.980922 -7.302778 12.371457 -9.583865 -1.738791 -0.881558 -5.770251 4.762836 -3.478289 -0.883558 -2.360146 0.000000 0.000000 0.000000 -5.374587 -2.085082 0.397182 3.765062 1.770367 -1.881316 1.366637 0.301831 0.120680 1.012606 -0.894656 0.254908 0.000000 0.000000 0.000000 0.660467 0.731535 0.024114 3.036696 0.075416 -0.145099 18.239566 -11.813318 0.445525 0.000000 0.000000 0.000000 0.848821 0.580202 -0.062471 2.751433 -3.746807 -12.606558 -1.658612 -0.380491 -1.973283 -2.119847 -6.080501 -58.742919 -1.156654 -11.613390 0.414595 0.000000 0.000000 0.000000 0.916774 0.492888 0.021111 2.320877 1.158167 15.498048 -0.345022 2.438736 -2.404654 -3.296386 9.659527 64.484772 0.329492 17.409437 0.830909 0.000000 0.000000 0.000000 
-1.226192 102.780869 -2.447254 0.000000 0.000000 0.000000 -6.287310 -1.531714 1.010338 -6.083936 5.202310 7.519478 15.157745 11.457580 1.494474 -4.092070 3.126431 -8.253190 2.296390 0.618511 -2.078328 0.000000 0.000000 0.000000 -6.160467 -0.530668 0.933808 -4.167988 -9.028232 -7.365964 13.155261 -9.607111 -1.725564 -1.423164 -6.376196 4.630551 -3.338580 -0.946427 -2.356668 0.000000 0.000000 0.000000 -5.695204 -1.305437 0.579997 4.043855 1.957298 -1.784115 1.394027 0.359387 0.123603 1.048282 -0.914191 0.256971 0.000000 0.000000 0.000000 0.645799 0.769648 0.052698 2.888591 -0.076171 -0.140206 18.166708 -12.277816 0.696738 0.000000 0.000000 0.000000 0.887993 0.622319 -0.055053 2.737978 -3.689018 -12.590305 -1.768639 -0.516250 -1.874742 -1.118350 -4.720790 -58.956800 -0.975067 -10.653376 0.457439 0.000000 0.000000 0.000000 0.974691 0.569378 0.036388 2.266696 1.398523 15.607710 -0.183640 2.316809 -2.332936 -4.341682 10.757180 63.955344 0.430353 18.650110 0.729128 0.000000 0.000000 0.000000 
-1.381248 102.529045 -2.798878 0.000000 0.000000 0.000000 -6.590212 -0.462785 1.204144 -6.539046 5.060041 7.394604 15.876758 11.213598 1.440048 -4.538372 2.721904 -8.046063 2.249221 0.603048 -1.996670 0.000000 0.000000 0.000000 -6.532223 0.479763 1.135706 -4.284941 -9.035691 -7.395376 14.139772 -9.652620 -1.695100 -2.113468 -7.134305 4.414934 -3.168551 -1.016687 -2.360313 0.000000 0.000000 0.000000 -6.096627 -0.458661 0.760161 4.356383 2.178252 -1.688853 1.410855 0.418844 0.140556 1.048524 -0.917991 0.266185 0.000000 0.000000 0.000000 0.658864 0.821604 0.091314 2.716157 -0.237802 -0.134999 18.111218 -12.860492 0.999519 0.000000 0.000000 0.000000 0.940749 0.674115 -0.025175 2.748178 -3.639314 -12.545595 -1.754956 -0.773142 -1.688127 -0.131420 -3.264807 -59.297407 -0.752750 -9.752019 0.463937 0.000000 0.000000 0.000000 1.027615 0.635243 0.069082 2.213333 1.627087 15.784081 0.031920 2.155986 -2.265284 -5.247058 11.824103 63.389278 0.518200 20.051069 0.668650 0.000000 0.000000 0.000000 
-1.540524 102.278305 -3.100056 0.000000 0.000000 0.000000 -6.901563 0.574872 1.374824 -6.985591 4.951604 7.326268 16.622669 10.956415 1.383056 -5.052288 2.339816 -7.825844 2.269924 0.587628 -1.931519 0.000000 0.000000 0.000000 -6.920677 1.394630 1.323117 -4.426640 -9.016850 -7.369967 15.132048 -9.696890 -1.646191 -2.726968 -7.939960 4.163028 -2.926706 -1.078336 -2.356766 0.000000 0.000000 0.000000 -6.512132 0.367351 0.912953 4.653660 2.419949 -1.602935 1.406130 0.479109 0.169254 1.085860 -0.938348 0.220826 0.000000 0.000000 0.000000 0.688025 0.886871 0.135756 2.582095 -0.389971 -0.142909 18.093260 -13.512193 1.337873 0.000000 0.000000 0.000000 0.992079 0.736079 0.025351 2.782848 -3.586219 -12.463846 -1.685835 -1.064966 -1.510803 0.837660 -1.863444 -59.665172 -0.538372 -8.985898 0.417603 0.000000 0.000000 0.000000 1.069643 0.688255 0.115459 2.170629 1.844666 15.995791 0.261829 2.058700 -2.219400 -5.902981 12.673221 62.923787 0.580700 21.530578 0.658711 0.000000 0.000000 0.000000 
-1.687385 102.075851 -3.365784 0.000000 0.000000 0.000000 -7.215824 1.465173 1.499379 -7.392366 4.893141 7.325806 17.320253 10.701957 1.318175 -5.561478 2.004137 -7.621091 2.321986 0.574850 -1.873067 0.000000 0.000000 0.000000 -7.302657 2.173917 1.469798 -4.555154 -8.974540 -7.282226 15.946164 -9.720848 -1.598233 -3.041581 -8.721447 3.985080 -2.723479 -1.111834 -2.348513 0.000000 0.000000 0.000000 -6.905125 1.144426 1.025134 4.904821 2.670194 -1.524068 1.384157 0.549509 0.204858 1.137798 -0.966147 0.206676 0.000000 0.000000 0.000000 0.726546 0.957999 0.186683 2.530359 -0.517541 -0.158899 18.112352 -14.198361 1.698967 0.000000 0.000000 0.000000 1.033889 0.803313 0.083979 2.831612 -3.547169 -12.342527 -1.620038 -1.305444 -1.413044 1.858726 -0.559575 -59.967374 -0.369305 -8.390471 0.328169 0.000000 0.000000 0.000000 1.091670 0.732574 0.161726 2.133454 2.058172 16.193296 0.474687 2.042402 -2.230481 -6.357924 13.216226 62.645361 0.617796 23.002679 0.671019 0.000000 0.000000 0.000000 
